<mxfile host="Electron" agent="Mozilla/5.0 (Windows NT 10.0; Win64; x64) AppleWebKit/537.36 (KHTML, like Gecko) draw.io/24.7.5 Chrome/126.0.6478.183 Electron/31.3.0 Safari/537.36" version="24.7.5">
  <diagram id="R2lEEEUBdFMjLlhIrx00" name="Page-1">
    <mxGraphModel dx="1434" dy="844" grid="1" gridSize="10" guides="1" tooltips="1" connect="1" arrows="1" fold="1" page="1" pageScale="1" pageWidth="850" pageHeight="1100" math="0" shadow="0" extFonts="Permanent Marker^https://fonts.googleapis.com/css?family=Permanent+Marker">
      <root>
        <mxCell id="0" />
        <mxCell id="1" parent="0" />
        <mxCell id="3cdHrpoO9KdR069QdQPt-1" value="celular_&lt;div&gt;imagen&lt;/div&gt;" style="rhombus;whiteSpace=wrap;html=1;" vertex="1" parent="1">
          <mxGeometry x="400" y="550" width="80" height="80" as="geometry" />
        </mxCell>
        <mxCell id="3cdHrpoO9KdR069QdQPt-2" value="CELULAR = &lt;u&gt;id_celular&lt;/u&gt;&amp;nbsp;+ modelo + celular + nombre_compania&lt;div&gt;IMAGEN = id_imagen + patch_archivo&lt;/div&gt;&lt;div&gt;MP3 = id_mp3 + path_archivo&lt;/div&gt;&lt;div&gt;CONTACTO = id_contacto + nombre_apellido&lt;/div&gt;&lt;div&gt;TELEFONO = id_telefono + numero_telefono + tipo_telefono&lt;/div&gt;&lt;div&gt;DIRECCION = numero + piso + calle + departamento&lt;/div&gt;" style="rounded=1;whiteSpace=wrap;html=1;align=left;" vertex="1" parent="1">
          <mxGeometry x="270" y="120" width="340" height="110" as="geometry" />
        </mxCell>
        <mxCell id="3cdHrpoO9KdR069QdQPt-3" value="&lt;font style=&quot;font-size: 17px;&quot;&gt;celular&lt;/font&gt;" style="rounded=0;whiteSpace=wrap;html=1;" vertex="1" parent="1">
          <mxGeometry x="400" y="490" width="80" height="30" as="geometry" />
        </mxCell>
        <mxCell id="3cdHrpoO9KdR069QdQPt-5" value="" style="endArrow=none;html=1;rounded=0;entryX=0.5;entryY=1;entryDx=0;entryDy=0;" edge="1" parent="1" source="3cdHrpoO9KdR069QdQPt-1" target="3cdHrpoO9KdR069QdQPt-3">
          <mxGeometry width="50" height="50" relative="1" as="geometry">
            <mxPoint x="380" y="570" as="sourcePoint" />
            <mxPoint x="430" y="520" as="targetPoint" />
          </mxGeometry>
        </mxCell>
        <mxCell id="3cdHrpoO9KdR069QdQPt-6" value="&lt;span style=&quot;font-size: 17px;&quot;&gt;imagen&lt;/span&gt;" style="rounded=0;whiteSpace=wrap;html=1;" vertex="1" parent="1">
          <mxGeometry x="400" y="660" width="80" height="30" as="geometry" />
        </mxCell>
        <mxCell id="3cdHrpoO9KdR069QdQPt-7" value="" style="endArrow=none;html=1;rounded=0;entryX=0.5;entryY=1;entryDx=0;entryDy=0;exitX=0.5;exitY=0;exitDx=0;exitDy=0;" edge="1" parent="1" source="3cdHrpoO9KdR069QdQPt-6" target="3cdHrpoO9KdR069QdQPt-1">
          <mxGeometry width="50" height="50" relative="1" as="geometry">
            <mxPoint x="440" y="690" as="sourcePoint" />
            <mxPoint x="490" y="650" as="targetPoint" />
          </mxGeometry>
        </mxCell>
        <mxCell id="3cdHrpoO9KdR069QdQPt-8" value="&lt;span style=&quot;font-size: 17px;&quot;&gt;contacto&lt;/span&gt;" style="rounded=0;whiteSpace=wrap;html=1;" vertex="1" parent="1">
          <mxGeometry x="400" y="330" width="80" height="30" as="geometry" />
        </mxCell>
        <mxCell id="3cdHrpoO9KdR069QdQPt-9" value="celular_&lt;div&gt;contacto&lt;/div&gt;" style="rhombus;whiteSpace=wrap;html=1;" vertex="1" parent="1">
          <mxGeometry x="400" y="390" width="80" height="80" as="geometry" />
        </mxCell>
        <mxCell id="3cdHrpoO9KdR069QdQPt-10" value="" style="endArrow=none;html=1;rounded=0;exitX=0.5;exitY=0;exitDx=0;exitDy=0;entryX=0.5;entryY=1;entryDx=0;entryDy=0;" edge="1" parent="1" source="3cdHrpoO9KdR069QdQPt-3" target="3cdHrpoO9KdR069QdQPt-9">
          <mxGeometry width="50" height="50" relative="1" as="geometry">
            <mxPoint x="160" y="510" as="sourcePoint" />
            <mxPoint x="210" y="460" as="targetPoint" />
          </mxGeometry>
        </mxCell>
        <mxCell id="3cdHrpoO9KdR069QdQPt-11" value="" style="endArrow=none;html=1;rounded=0;entryX=0.5;entryY=1;entryDx=0;entryDy=0;" edge="1" parent="1" source="3cdHrpoO9KdR069QdQPt-9" target="3cdHrpoO9KdR069QdQPt-8">
          <mxGeometry width="50" height="50" relative="1" as="geometry">
            <mxPoint x="50" y="430" as="sourcePoint" />
            <mxPoint x="100" y="380" as="targetPoint" />
          </mxGeometry>
        </mxCell>
        <mxCell id="3cdHrpoO9KdR069QdQPt-13" value="celular_&lt;div&gt;telefono&lt;/div&gt;" style="rhombus;whiteSpace=wrap;html=1;" vertex="1" parent="1">
          <mxGeometry x="280" y="465" width="80" height="80" as="geometry" />
        </mxCell>
        <mxCell id="3cdHrpoO9KdR069QdQPt-14" value="&lt;span style=&quot;font-size: 17px;&quot;&gt;telefono&lt;/span&gt;" style="rounded=0;whiteSpace=wrap;html=1;" vertex="1" parent="1">
          <mxGeometry x="170" y="490" width="80" height="30" as="geometry" />
        </mxCell>
        <mxCell id="3cdHrpoO9KdR069QdQPt-15" value="" style="endArrow=none;html=1;rounded=0;entryX=0;entryY=0.5;entryDx=0;entryDy=0;exitX=1;exitY=0.5;exitDx=0;exitDy=0;" edge="1" parent="1" source="3cdHrpoO9KdR069QdQPt-13" target="3cdHrpoO9KdR069QdQPt-3">
          <mxGeometry width="50" height="50" relative="1" as="geometry">
            <mxPoint x="180" y="650" as="sourcePoint" />
            <mxPoint x="230" y="600" as="targetPoint" />
          </mxGeometry>
        </mxCell>
        <mxCell id="3cdHrpoO9KdR069QdQPt-16" value="" style="endArrow=none;html=1;rounded=0;entryX=0;entryY=0.5;entryDx=0;entryDy=0;exitX=1;exitY=0.5;exitDx=0;exitDy=0;" edge="1" parent="1" source="3cdHrpoO9KdR069QdQPt-14" target="3cdHrpoO9KdR069QdQPt-13">
          <mxGeometry width="50" height="50" relative="1" as="geometry">
            <mxPoint x="130" y="700" as="sourcePoint" />
            <mxPoint x="180" y="650" as="targetPoint" />
          </mxGeometry>
        </mxCell>
        <mxCell id="3cdHrpoO9KdR069QdQPt-17" value="celular_&lt;div&gt;mp3&lt;/div&gt;" style="rhombus;whiteSpace=wrap;html=1;" vertex="1" parent="1">
          <mxGeometry x="500" y="465" width="80" height="80" as="geometry" />
        </mxCell>
        <mxCell id="3cdHrpoO9KdR069QdQPt-18" value="" style="endArrow=none;html=1;rounded=0;entryX=0;entryY=0.5;entryDx=0;entryDy=0;exitX=1;exitY=0.5;exitDx=0;exitDy=0;" edge="1" parent="1" source="3cdHrpoO9KdR069QdQPt-3" target="3cdHrpoO9KdR069QdQPt-17">
          <mxGeometry width="50" height="50" relative="1" as="geometry">
            <mxPoint x="320" y="830" as="sourcePoint" />
            <mxPoint x="370" y="780" as="targetPoint" />
          </mxGeometry>
        </mxCell>
        <mxCell id="3cdHrpoO9KdR069QdQPt-19" value="&lt;span style=&quot;font-size: 17px;&quot;&gt;mp3&lt;/span&gt;" style="rounded=0;whiteSpace=wrap;html=1;" vertex="1" parent="1">
          <mxGeometry x="610" y="490" width="80" height="30" as="geometry" />
        </mxCell>
        <mxCell id="3cdHrpoO9KdR069QdQPt-20" value="" style="endArrow=none;html=1;rounded=0;entryX=0;entryY=0.5;entryDx=0;entryDy=0;exitX=1;exitY=0.5;exitDx=0;exitDy=0;" edge="1" parent="1" source="3cdHrpoO9KdR069QdQPt-17" target="3cdHrpoO9KdR069QdQPt-19">
          <mxGeometry width="50" height="50" relative="1" as="geometry">
            <mxPoint x="560" y="650" as="sourcePoint" />
            <mxPoint x="610" y="600" as="targetPoint" />
          </mxGeometry>
        </mxCell>
        <mxCell id="3cdHrpoO9KdR069QdQPt-21" value="id_telefono" style="ellipse;whiteSpace=wrap;html=1;" vertex="1" parent="1">
          <mxGeometry x="150" y="440" width="70" height="30" as="geometry" />
        </mxCell>
        <mxCell id="3cdHrpoO9KdR069QdQPt-23" value="" style="curved=1;endArrow=classic;html=1;rounded=0;exitX=0;exitY=0.5;exitDx=0;exitDy=0;entryX=0;entryY=0.5;entryDx=0;entryDy=0;" edge="1" parent="1" source="3cdHrpoO9KdR069QdQPt-14" target="3cdHrpoO9KdR069QdQPt-21">
          <mxGeometry width="50" height="50" relative="1" as="geometry">
            <mxPoint x="120" y="530" as="sourcePoint" />
            <mxPoint x="100" y="480" as="targetPoint" />
            <Array as="points">
              <mxPoint x="140" y="510" />
              <mxPoint x="120" y="480" />
            </Array>
          </mxGeometry>
        </mxCell>
        <mxCell id="3cdHrpoO9KdR069QdQPt-24" value="id_contacto" style="ellipse;whiteSpace=wrap;html=1;" vertex="1" parent="1">
          <mxGeometry x="380" y="270" width="70" height="30" as="geometry" />
        </mxCell>
        <mxCell id="3cdHrpoO9KdR069QdQPt-25" value="" style="curved=1;endArrow=classic;html=1;rounded=0;exitX=0;exitY=0.25;exitDx=0;exitDy=0;entryX=0;entryY=0.5;entryDx=0;entryDy=0;" edge="1" parent="1" target="3cdHrpoO9KdR069QdQPt-24" source="3cdHrpoO9KdR069QdQPt-8">
          <mxGeometry width="50" height="50" relative="1" as="geometry">
            <mxPoint x="400" y="315" as="sourcePoint" />
            <mxPoint x="330" y="290" as="targetPoint" />
            <Array as="points">
              <mxPoint x="370" y="330" />
              <mxPoint x="360" y="310" />
            </Array>
          </mxGeometry>
        </mxCell>
        <mxCell id="3cdHrpoO9KdR069QdQPt-26" value="id_mp3" style="ellipse;whiteSpace=wrap;html=1;" vertex="1" parent="1">
          <mxGeometry x="700" y="450" width="70" height="30" as="geometry" />
        </mxCell>
        <mxCell id="3cdHrpoO9KdR069QdQPt-28" value="" style="curved=1;endArrow=classic;html=1;rounded=0;exitX=1;exitY=0.75;exitDx=0;exitDy=0;entryX=0.5;entryY=1;entryDx=0;entryDy=0;" edge="1" parent="1" source="3cdHrpoO9KdR069QdQPt-19" target="3cdHrpoO9KdR069QdQPt-26">
          <mxGeometry width="50" height="50" relative="1" as="geometry">
            <mxPoint x="740" y="545" as="sourcePoint" />
            <mxPoint x="790" y="495" as="targetPoint" />
            <Array as="points">
              <mxPoint x="740" y="520" />
            </Array>
          </mxGeometry>
        </mxCell>
        <mxCell id="3cdHrpoO9KdR069QdQPt-29" value="id_imagen" style="ellipse;whiteSpace=wrap;html=1;" vertex="1" parent="1">
          <mxGeometry x="480" y="620" width="70" height="30" as="geometry" />
        </mxCell>
        <mxCell id="3cdHrpoO9KdR069QdQPt-30" value="" style="curved=1;endArrow=classic;html=1;rounded=0;exitX=1;exitY=0.75;exitDx=0;exitDy=0;entryX=0.5;entryY=1;entryDx=0;entryDy=0;" edge="1" parent="1" target="3cdHrpoO9KdR069QdQPt-29">
          <mxGeometry width="50" height="50" relative="1" as="geometry">
            <mxPoint x="480" y="683" as="sourcePoint" />
            <mxPoint x="540" y="665" as="targetPoint" />
            <Array as="points">
              <mxPoint x="510" y="690" />
            </Array>
          </mxGeometry>
        </mxCell>
      </root>
    </mxGraphModel>
  </diagram>
</mxfile>
